<?xml version="1.0" encoding="UTF-8"?><svg xmlns="http://www.w3.org/2000/svg" xmlns:xlink="http://www.w3.org/1999/xlink" width="375pt" zoomAndPan="magnify" viewBox="0 0 375 374.999991" height="374.999991pt" preserveAspectRatio="xMidYMid meet" version="1.2"><defs><clipPath xml:id="clip1" id="clip1"><path d="M 17.460938 0 L 357.210938 0 L 357.210938 41 L 17.460938 41 Z M 17.460938 0 "/></clipPath></defs><g xml:id="surface1" id="surface1"><rect x="0" width="375" y="0" height="374.999991" style="fill:rgb(100%,100%,100%);fill-opacity:1;stroke:none;"/><rect x="0" width="375" y="0" height="374.999991" style="fill:rgb(100%,100%,100%);fill-opacity:1;stroke:none;"/><rect x="0" width="375" y="0" height="374.999991" style="fill:rgb(100%,100%,100%);fill-opacity:1;stroke:none;"/><path style=" stroke:none;fill-rule:nonzero;fill:rgb(18.818665%,18.818665%,18.818665%);fill-opacity:1;" d="M 119.054688 374.945312 C 118.5625 374.945312 118.054688 374.847656 117.570312 374.640625 C 115.632812 373.820312 114.722656 371.578125 115.546875 369.640625 L 186.203125 202.605469 C 187.027344 200.660156 189.261719 199.75 191.203125 200.578125 C 193.144531 201.398438 194.050781 203.640625 193.230469 205.578125 L 122.570312 372.613281 C 121.953125 374.070312 120.542969 374.945312 119.054688 374.945312 "/><path style=" stroke:none;fill-rule:nonzero;fill:rgb(18.818665%,18.818665%,18.818665%);fill-opacity:1;" d="M 258.375 374.945312 C 256.890625 374.945312 255.476562 374.070312 254.863281 372.613281 L 184.203125 205.578125 C 183.382812 203.640625 184.289062 201.398438 186.230469 200.578125 C 188.167969 199.753906 190.40625 200.664062 191.230469 202.605469 L 261.886719 369.640625 C 262.707031 371.578125 261.800781 373.820312 259.863281 374.640625 C 259.375 374.847656 258.871094 374.945312 258.375 374.945312 "/><path style=" stroke:none;fill-rule:nonzero;fill:rgb(100%,100%,100%);fill-opacity:1;" d="M 333.175781 230.050781 C 333.175781 241.828125 323.636719 251.378906 311.871094 251.378906 L 62.832031 251.378906 C 51.0625 251.378906 41.523438 241.828125 41.523438 230.050781 L 41.523438 37.953125 C 41.523438 26.171875 51.0625 16.625 62.832031 16.625 L 311.871094 16.625 C 323.636719 16.625 333.175781 26.171875 333.175781 37.953125 L 333.175781 230.050781 "/><path style=" stroke:none;fill-rule:nonzero;fill:rgb(18.818665%,18.818665%,18.818665%);fill-opacity:1;" d="M 62.832031 20.441406 C 53.183594 20.441406 45.335938 28.296875 45.335938 37.953125 L 45.335938 230.050781 C 45.335938 239.703125 53.183594 247.5625 62.832031 247.5625 L 311.867188 247.5625 C 321.515625 247.5625 329.363281 239.703125 329.363281 230.050781 L 329.363281 37.953125 C 329.363281 28.296875 321.515625 20.441406 311.867188 20.441406 Z M 311.867188 255.195312 L 62.832031 255.195312 C 48.980469 255.195312 37.710938 243.917969 37.710938 230.050781 L 37.710938 37.953125 C 37.710938 24.089844 48.980469 12.808594 62.832031 12.808594 L 311.867188 12.808594 C 325.71875 12.808594 336.988281 24.089844 336.988281 37.953125 L 336.988281 230.050781 C 336.988281 243.917969 325.71875 255.195312 311.867188 255.195312 "/><g clip-rule="nonzero" clip-path="url(#clip1)"><path style=" stroke:none;fill-rule:nonzero;fill:rgb(100%,56.858826%,30.198669%);fill-opacity:1;" d="M 357.230469 20.390625 C 357.230469 31.609375 348.144531 40.703125 336.933594 40.703125 L 37.765625 40.703125 C 26.554688 40.703125 17.46875 31.609375 17.46875 20.390625 C 17.46875 9.167969 26.554688 0.0742188 37.765625 0.0742188 L 336.933594 0.0742188 C 348.144531 0.0742188 357.230469 9.167969 357.230469 20.390625 "/></g><path style=" stroke:none;fill-rule:nonzero;fill:rgb(100%,56.858826%,30.198669%);fill-opacity:1;" d="M 285.289062 201.402344 L 285.289062 155.914062 C 285.289062 137.117188 270.066406 121.878906 251.285156 121.878906 C 232.503906 121.878906 217.28125 137.117188 217.28125 155.914062 L 217.28125 201.402344 L 285.289062 201.402344 "/><path style=" stroke:none;fill-rule:nonzero;fill:rgb(100%,100%,100%);fill-opacity:1;" d="M 221.09375 197.582031 L 281.476562 197.582031 L 281.476562 155.914062 C 281.476562 139.25 267.929688 125.695312 251.285156 125.695312 C 234.636719 125.695312 221.09375 139.25 221.09375 155.914062 Z M 285.289062 205.21875 L 217.28125 205.21875 C 215.171875 205.21875 213.464844 203.507812 213.464844 201.402344 L 213.464844 155.914062 C 213.464844 135.042969 230.429688 118.0625 251.285156 118.0625 C 272.136719 118.0625 289.105469 135.042969 289.105469 155.914062 L 289.105469 201.402344 C 289.105469 203.507812 287.394531 205.21875 285.289062 205.21875 "/><path style=" stroke:none;fill-rule:nonzero;fill:rgb(100%,56.858826%,30.198669%);fill-opacity:1;" d="M 277.386719 106.664062 C 277.386719 120.410156 266.25 131.558594 252.511719 131.558594 C 238.777344 131.558594 227.644531 120.410156 227.644531 106.664062 C 227.644531 92.914062 238.777344 81.769531 252.511719 81.769531 C 266.25 81.769531 277.386719 92.914062 277.386719 106.664062 "/><path style=" stroke:none;fill-rule:nonzero;fill:rgb(100%,100%,100%);fill-opacity:1;" d="M 252.511719 85.585938 C 240.902344 85.585938 231.457031 95.042969 231.457031 106.664062 C 231.457031 118.285156 240.902344 127.742188 252.511719 127.742188 C 264.125 127.742188 273.570312 118.285156 273.570312 106.664062 C 273.570312 95.042969 264.125 85.585938 252.511719 85.585938 Z M 252.511719 135.378906 C 236.695312 135.378906 223.828125 122.496094 223.828125 106.664062 C 223.828125 90.832031 236.695312 77.949219 252.511719 77.949219 C 268.332031 77.949219 281.199219 90.832031 281.199219 106.664062 C 281.199219 122.496094 268.332031 135.378906 252.511719 135.378906 "/><path style=" stroke:none;fill-rule:nonzero;fill:rgb(100%,56.858826%,30.198669%);fill-opacity:1;" d="M 157.417969 201.402344 L 157.417969 155.914062 C 157.417969 137.117188 142.195312 121.878906 123.414062 121.878906 C 104.636719 121.878906 89.410156 137.117188 89.410156 155.914062 L 89.410156 201.402344 L 157.417969 201.402344 "/><path style=" stroke:none;fill-rule:nonzero;fill:rgb(100%,100%,100%);fill-opacity:1;" d="M 93.222656 197.582031 L 153.605469 197.582031 L 153.605469 155.914062 C 153.605469 139.25 140.0625 125.695312 123.414062 125.695312 C 106.765625 125.695312 93.222656 139.25 93.222656 155.914062 Z M 157.417969 205.21875 L 89.410156 205.21875 C 87.304688 205.21875 85.59375 203.507812 85.59375 201.402344 L 85.59375 155.914062 C 85.59375 135.042969 102.5625 118.0625 123.414062 118.0625 C 144.265625 118.0625 161.234375 135.042969 161.234375 155.914062 L 161.234375 201.402344 C 161.234375 203.507812 159.523438 205.21875 157.417969 205.21875 "/><path style=" stroke:none;fill-rule:nonzero;fill:rgb(100%,56.858826%,30.198669%);fill-opacity:1;" d="M 149.515625 106.664062 C 149.515625 120.410156 138.378906 131.558594 124.644531 131.558594 C 110.90625 131.558594 99.773438 120.410156 99.773438 106.664062 C 99.773438 92.914062 110.90625 81.769531 124.644531 81.769531 C 138.378906 81.769531 149.515625 92.914062 149.515625 106.664062 "/><path style=" stroke:none;fill-rule:nonzero;fill:rgb(100%,100%,100%);fill-opacity:1;" d="M 124.644531 85.585938 C 113.035156 85.585938 103.585938 95.042969 103.585938 106.664062 C 103.585938 118.285156 113.035156 127.742188 124.644531 127.742188 C 136.253906 127.742188 145.699219 118.285156 145.699219 106.664062 C 145.699219 95.042969 136.253906 85.585938 124.644531 85.585938 Z M 124.644531 135.378906 C 108.828125 135.378906 95.957031 122.496094 95.957031 106.664062 C 95.957031 90.832031 108.828125 77.949219 124.644531 77.949219 C 140.460938 77.949219 153.328125 90.832031 153.328125 106.664062 C 153.328125 122.496094 140.460938 135.378906 124.644531 135.378906 "/><path style=" stroke:none;fill-rule:nonzero;fill:rgb(100%,56.858826%,30.198669%);fill-opacity:1;" d="M 220.164062 221.109375 L 220.164062 175.625 C 220.164062 156.824219 204.941406 141.585938 186.160156 141.585938 C 167.382812 141.585938 152.15625 156.824219 152.15625 175.625 L 152.15625 221.109375 L 220.164062 221.109375 "/><path style=" stroke:none;fill-rule:nonzero;fill:rgb(100%,100%,100%);fill-opacity:1;" d="M 155.972656 217.292969 L 216.351562 217.292969 L 216.351562 175.625 C 216.351562 158.960938 202.808594 145.402344 186.160156 145.402344 C 169.515625 145.402344 155.972656 158.960938 155.972656 175.625 Z M 220.164062 224.929688 L 152.15625 224.929688 C 150.050781 224.929688 148.34375 223.21875 148.34375 221.109375 L 148.34375 175.625 C 148.34375 154.75 165.308594 137.765625 186.160156 137.765625 C 207.015625 137.765625 223.980469 154.75 223.980469 175.625 L 223.980469 221.109375 C 223.980469 223.21875 222.273438 224.929688 220.164062 224.929688 "/><path style=" stroke:none;fill-rule:nonzero;fill:rgb(100%,56.858826%,30.198669%);fill-opacity:1;" d="M 212.261719 126.375 C 212.261719 140.121094 201.128906 151.265625 187.390625 151.265625 C 173.65625 151.265625 162.519531 140.121094 162.519531 126.375 C 162.519531 112.625 173.65625 101.476562 187.390625 101.476562 C 201.128906 101.476562 212.261719 112.625 212.261719 126.375 "/><path style=" stroke:none;fill-rule:nonzero;fill:rgb(100%,100%,100%);fill-opacity:1;" d="M 187.390625 105.292969 C 175.777344 105.292969 166.335938 114.75 166.335938 126.375 C 166.335938 137.996094 175.777344 147.449219 187.390625 147.449219 C 199 147.449219 208.449219 137.996094 208.449219 126.375 C 208.449219 114.75 199 105.292969 187.390625 105.292969 Z M 187.390625 155.082031 C 171.574219 155.082031 158.707031 142.203125 158.707031 126.375 C 158.707031 110.539062 171.574219 97.65625 187.390625 97.65625 C 203.207031 97.65625 216.074219 110.539062 216.074219 126.375 C 216.074219 142.203125 203.207031 155.082031 187.390625 155.082031 "/></g></svg>